<?xml version="1.0" encoding="utf-8"?>
<!-- Generator: Adobe Illustrator 24.0.2, SVG Export Plug-In . SVG Version: 6.00 Build 0)  -->
<svg version="1.0" id="Layer_1" xmlns="http://www.w3.org/2000/svg" xmlns:xlink="http://www.w3.org/1999/xlink" x="0px" y="0px"
	 viewBox="0 0 40.64 48.08" style="enable-background:new 0 0 40.64 48.08;" xml:space="preserve">
<style type="text/css">
	.st0{fill:#4B4B4B;}
</style>
<g id="_x38_6_x2C__Email_x2C__Newsletter_x2C__E-Newsletter_x2C__Profile_x2C__Resume">
	<g>
		<g>
			<path class="st0" d="M33.84,22.75c0.59-0.94,0.41-2.24-0.53-2.95l-3.18-2.59c0-7.43,0-7.08,0-7.19c0-0.06-0.06-0.18-0.12-0.24
				l0,0l-0.06-0.06c0,0,0,0-0.06-0.06l0,0C26,5.76,26.17,5.94,26.06,5.88c-0.12-0.06-0.24-0.12-0.41-0.12h-12.8
				c-1.42,0-2.59,1.18-2.59,2.59v9.02l-3.07,2.48c-0.94,0.77-1.12,2-0.53,2.95c-0.77,0.41-1.24,1.18-1.24,2v12.33
				c0,1.42,1.47,2.54,2.89,2.36c0.3,1,1.18,1.65,2.18,1.65h19.46c1.06,0,1.95-0.71,2.24-1.71c1.36,0.24,2.89-0.77,2.89-2.24V24.75
				C35.08,23.93,34.61,23.16,33.84,22.75z M32.43,20.92c0.41,0.3,0.41,0.94,0,1.24l-2.3,1.83v-4.95L32.43,20.92z M26.47,8.24
				l1.18,1.18h-1.18V8.24z M11.73,8.3c0-0.59,0.47-1.12,1.12-1.12H25v2.95c0,0.41,0.35,0.77,0.77,0.77h2.95c0,0.06,0,13.86,0,14.33
				L22.81,30l-2.01-1.65c-0.29-0.24-0.65-0.24-0.94,0L17.86,30l-6.07-4.89C11.73,24.4,11.73,9.12,11.73,8.3z M8.13,20.92l2.12-1.71
				v4.72c-0.06-0.06-2-1.65-2.12-1.71C7.72,21.86,7.72,21.21,8.13,20.92z M6.89,37.14V24.75c0-0.65,0.77-1.06,1.3-0.65
				c0.77,0.59,7.55,6.13,8.37,6.78l-7.49,6.13c-0.29,0.24-0.53,0.53-0.65,0.88C7.83,38.2,6.89,37.72,6.89,37.14z M30.77,39.08
				c-0.06,0.12-0.24,0.53-0.77,0.53H10.55c-0.53,0-0.71-0.41-0.77-0.53c-0.06-0.12-0.18-0.59,0.24-0.88l10.26-8.32l10.26,8.32
				C30.95,38.49,30.83,38.96,30.77,39.08z M33.6,37.14c0,0.41-0.35,0.59-0.47,0.65c-0.35,0.18-0.83,0.18-1.12-0.06
				c-0.12-0.24-0.35-0.47-0.59-0.65l-7.49-6.13l8.37-6.78c0.53-0.41,1.3-0.06,1.3,0.65V37.14L33.6,37.14z"/>
			<path class="st0" d="M13.91,14.55h4.42c0.41,0,0.77-0.35,0.77-0.77V9.36c0-0.41-0.35-0.77-0.77-0.77h-4.42
				c-0.41,0-0.77,0.35-0.77,0.77v4.42C13.2,14.2,13.49,14.55,13.91,14.55z M14.67,10.13h2.95v2.95h-2.95V10.13z"/>
			<path class="st0" d="M20.57,12.37h2.95c0.41,0,0.77-0.35,0.77-0.77c0-0.41-0.35-0.77-0.77-0.77h-2.95
				c-0.41,0-0.77,0.35-0.77,0.77C19.81,12.01,20.16,12.37,20.57,12.37z"/>
			<path class="st0" d="M20.57,14.55h5.19c0.41,0,0.77-0.35,0.77-0.77c0-0.41-0.35-0.77-0.77-0.77h-5.19
				c-0.41,0-0.77,0.35-0.77,0.77C19.81,14.2,20.16,14.55,20.57,14.55z"/>
			<path class="st0" d="M13.91,17.5h5.19c0.41,0,0.71-0.35,0.71-0.71c0-0.41-0.35-0.77-0.71-0.77h-5.19c-0.41,0-0.77,0.35-0.77,0.77
				C13.2,17.14,13.49,17.5,13.91,17.5z"/>
			<path class="st0" d="M13.91,19.68h9.55c0.41,0,0.77-0.35,0.77-0.71c0-0.41-0.35-0.77-0.77-0.77h-9.55
				c-0.41,0-0.77,0.35-0.77,0.77C13.2,19.38,13.49,19.68,13.91,19.68z"/>
			<path class="st0" d="M13.91,21.92H25.7c0.41,0,0.77-0.35,0.77-0.77c0-0.41-0.35-0.77-0.77-0.77H13.91
				c-0.41,0-0.77,0.35-0.77,0.77C13.2,21.57,13.49,21.92,13.91,21.92z"/>
			<path class="st0" d="M22.05,22.69h-5.19c-0.41,0-0.77,0.35-0.77,0.77c0,0.41,0.35,0.77,0.77,0.77h5.19
				c0.41,0,0.77-0.35,0.77-0.77C22.81,23.04,22.46,22.69,22.05,22.69z"/>
			<rect x="13.91" y="37.43" class="st0" width="1.47" height="1.47"/>
			<rect x="16.15" y="37.43" class="st0" width="1.47" height="1.47"/>
			<rect x="18.33" y="37.43" class="st0" width="1.47" height="1.47"/>
			<rect x="20.57" y="37.43" class="st0" width="1.47" height="1.47"/>
			<rect x="22.75" y="37.43" class="st0" width="1.47" height="1.47"/>
			<rect x="25" y="37.43" class="st0" width="1.47" height="1.47"/>
		</g>
	</g>
</g>
</svg>
